# xmcd
#
# Track frame offsets:
#	150
#	20705
#	39342
#	55887
#	71400
#	86960
#	102657
#	115102
#	128222
#	147437
#	161902
#	176052
#	192300
#	206780
#	225862
#	242102
#	252620
#	268875
#	281332
#
# Disc length: 3926 seconds
#
# Revision: 2
# Processed by: cddbd v1.5.2PL0 Copyright (c) Steve Scherf et al.
# Submitted via: audiograbber 1.83.01
#
DISCID=250f5413
DTITLE=Various Artist - Rural Aid '95 Volume 3 [Disc 2]
DYEAR=1995
DGENRE=Country
TTITLE0=Graeme Connors - We've Done Us Proud
TTITLE1=James Blundell - Walking Away
TTITLE2=Troy Cassar-Daley - Music Man
TTITLE3=Dead Ringer Band - Lonely Child
TTITLE4=Tracy Coster - Play The Game
TTITLE5=Webb Brothers - The Call Of The Bellbird
TTITLE6=Glenn Jones - Rain You Beauty Rain
TTITLE7=Welcome Strangers - Do You Love
TTITLE8=Bruce McCumstie - Unsung Heroes
TTITLE9=Rene Diaz - Don't Get Angry
TTITLE10=Craig Giles - Tired Of Loving You
TTITLE11=Issi-Dye - I Wonder
TTITLE12=TC Cassidy - Hooked On You
TTITLE13=Steve Gibson - Simple Man
TTITLE14=Carol Young - Ride'm Cowboy
TTITLE15=Darcy Le Year - Party Night
TTITLE16=Shot To Pieces - The Dude
TTITLE17=Shanley Del - Little Ray Of Hope
TTITLE18=The Wheel - I Fell In Love (Muster Mix)
EXTD=
EXTT0=
EXTT1=
EXTT2=
EXTT3=
EXTT4=
EXTT5=
EXTT6=
EXTT7=
EXTT8=
EXTT9=
EXTT10=
EXTT11=
EXTT12=
EXTT13=
EXTT14=
EXTT15=
EXTT16=
EXTT17=
EXTT18=
PLAYORDER=
